<svg width="994" height="994" viewBox="0 0 994 994" fill="none" xmlns="http://www.w3.org/2000/svg">
<g clip-path="url(#clip0_16_2)">
<rect width="994" height="994" fill="white"/>
<path d="M228.667 896V221H582C623.111 221 658.944 228.222 689.5 242.667C720.611 257.111 744.778 277.389 762 303.5C779.778 329.056 788.667 358.778 788.667 392.667C788.667 424.889 780.611 452.944 764.5 476.833C748.389 500.167 725.333 518.222 695.333 531V534.333C722 542.111 744.778 554.333 763.667 571C782.556 587.111 797 606.278 807 628.5C817 650.722 822 675.444 822 702.667C822 741 812.556 774.611 793.667 803.5C774.778 832.389 748.389 855.167 714.5 871.833C681.167 887.944 642 896 597 896H228.667ZM385.333 759.333H570.333C601.444 759.333 625.056 752.667 641.167 739.333C657.278 726 665.333 707.111 665.333 682.667C665.333 658.222 657.278 639.611 641.167 626.833C625.056 614.056 601.722 607.667 571.167 607.667H385.333V759.333ZM385.333 484.333H559.5C583.389 484.333 601.444 479.056 613.667 468.5C625.889 457.389 632 441.556 632 421C632 399.889 625.889 384.056 613.667 373.5C601.444 362.944 583.389 357.667 559.5 357.667H385.333V484.333Z" fill="#FFB415"/>
<path d="M519.659 215.443L471.327 121.32C469.85 118.442 466.592 116.952 463.448 117.715L305.162 156.159C304.133 156.409 303.173 156.89 302.356 157.565L169.568 267.256C167.037 269.347 166.299 272.917 167.794 275.84L216.151 370.379C217.555 373.124 220.589 374.627 223.623 374.081L385.431 344.964C386.744 344.727 387.963 344.121 388.942 343.215L518.183 223.781C520.491 221.648 521.095 218.238 519.659 215.443Z" fill="#4B49F8" stroke="black"/>
<path d="M527.585 43.3454L264.786 92.115C263.431 92.3665 262.181 93.0122 261.191 93.9714L75.9289 273.555C70.971 278.361 75.2288 286.682 82.027 285.473L335.412 240.398C336.752 240.16 337.994 239.536 338.985 238.603L533.66 55.3245C538.746 50.5367 534.452 42.0709 527.585 43.3454Z" fill="#6D6BFB" stroke="black"/>
</g>
<defs>
<clipPath id="clip0_16_2">
<rect width="994" height="994" fill="white"/>
</clipPath>
</defs>
</svg>
